<svg width="55" height="55" viewBox="0 0 55 55" fill="none" xmlns="http://www.w3.org/2000/svg">
<g clip-path="url(#clip0_2010_329)">
<path d="M27.5 0C12.3123 0 0 12.3123 0 27.5C0 40.3964 8.8792 51.2182 20.8571 54.1904V35.904H15.1866V27.5H20.8571V23.8788C20.8571 14.5189 25.0932 10.1805 34.2826 10.1805C36.025 10.1805 39.0313 10.5226 40.2611 10.8636V18.4811C39.6121 18.4129 38.4846 18.3788 37.0843 18.3788C32.5754 18.3788 30.833 20.0871 30.833 24.5278V27.5H39.8156L38.2723 35.904H30.833V54.7987C44.4499 53.1542 55.0011 41.5602 55.0011 27.5C55 12.3123 42.6877 0 27.5 0Z" fill="#2F2C3B"/>
</g>
<defs>
<clipPath id="clip0_2010_329">
<rect width="55" height="55" fill="white"/>
</clipPath>
</defs>
</svg>
