<svg width="23" height="23" viewBox="0 0 23 23" fill="none" xmlns="http://www.w3.org/2000/svg">
<g clip-path="url(#clip0_2010_424)">
<path d="M11.25 0C5.03685 0 0 5.03685 0 11.25C0 16.5258 3.6324 20.9529 8.53245 22.1688V14.688H6.2127V11.25H8.53245V9.7686C8.53245 5.93955 10.2654 4.16475 14.0247 4.16475C14.7375 4.16475 15.9673 4.3047 16.4704 4.4442V7.56045C16.2049 7.53255 15.7437 7.5186 15.1708 7.5186C13.3263 7.5186 12.6135 8.21745 12.6135 10.0341V11.25H16.2882L15.6568 14.688H12.6135V22.4176C18.184 21.7449 22.5004 17.0019 22.5004 11.25C22.5 5.03685 17.4631 0 11.25 0Z" fill="#2F2C3B"/>
</g>
<defs>
<clipPath id="clip0_2010_424">
<rect width="22.5" height="22.5" fill="white"/>
</clipPath>
</defs>
</svg>
