<svg width="23" height="23" viewBox="0 0 23 23" fill="none" xmlns="http://www.w3.org/2000/svg">
<g clip-path="url(#clip0_2010_427)">
<path fill-rule="evenodd" clip-rule="evenodd" d="M11.2593 0C5.0332 0 0 5.07031 0 11.343C0 16.357 3.22495 20.6013 7.6988 22.1035C8.25815 22.2165 8.46303 21.8595 8.46303 21.5592C8.46303 21.2962 8.4446 20.3948 8.4446 19.4557C5.31253 20.1319 4.6603 18.1035 4.6603 18.1035C4.15696 16.7889 3.41116 16.4511 3.41116 16.4511C2.38604 15.7562 3.48584 15.7562 3.48584 15.7562C4.62297 15.8313 5.21965 16.9205 5.21965 16.9205C6.22611 18.6481 7.84791 18.16 8.50037 17.8595C8.59348 17.127 8.89194 16.62 9.20883 16.3384C6.71078 16.0754 4.08252 15.0989 4.08252 10.7419C4.08252 9.50245 4.52963 8.48839 5.23809 7.69972C5.12631 7.41809 4.73475 6.25353 5.3501 4.69487C5.3501 4.69487 6.30078 4.39434 8.44437 5.8592C9.36211 5.61091 10.3086 5.4846 11.2593 5.48354C12.21 5.48354 13.1791 5.61513 14.074 5.8592C16.2178 4.39434 17.1685 4.69487 17.1685 4.69487C17.7839 6.25353 17.3921 7.41809 17.2803 7.69972C18.0074 8.48839 18.4361 9.50245 18.4361 10.7419C18.4361 15.0989 15.8078 16.0565 13.2911 16.3384C13.7014 16.6951 14.0554 17.3711 14.0554 18.4416C14.0554 19.9627 14.0369 21.1835 14.0369 21.5589C14.0369 21.8595 14.242 22.2165 14.8011 22.1038C19.275 20.6011 22.4999 16.357 22.4999 11.343C22.5184 5.07031 17.4667 0 11.2593 0Z" fill="#2F2C3B"/>
</g>
<defs>
<clipPath id="clip0_2010_427">
<rect width="22.5" height="22.5" fill="white"/>
</clipPath>
</defs>
</svg>
