<svg width="23" height="23" viewBox="0 0 23 23" fill="none" xmlns="http://www.w3.org/2000/svg">
<g clip-path="url(#clip0_2010_425)">
<path d="M11.25 2.02588C14.2559 2.02588 14.6118 2.03906 15.7939 2.0918C16.8926 2.14014 17.4858 2.32471 17.8813 2.47852C18.4043 2.68066 18.7822 2.92676 19.1733 3.31787C19.5688 3.71338 19.8105 4.08691 20.0127 4.60986C20.1665 5.00537 20.3511 5.60303 20.3994 6.69727C20.4521 7.88379 20.4653 8.23975 20.4653 11.2412C20.4653 14.2471 20.4521 14.603 20.3994 15.7852C20.3511 16.8838 20.1665 17.4771 20.0127 17.8726C19.8105 18.3955 19.5645 18.7734 19.1733 19.1646C18.7778 19.5601 18.4043 19.8018 17.8813 20.0039C17.4858 20.1577 16.8882 20.3423 15.7939 20.3906C14.6074 20.4434 14.2515 20.4565 11.25 20.4565C8.24414 20.4565 7.88818 20.4434 6.70606 20.3906C5.60742 20.3423 5.01416 20.1577 4.61865 20.0039C4.0957 19.8018 3.71777 19.5557 3.32666 19.1646C2.93115 18.769 2.68945 18.3955 2.4873 17.8726C2.3335 17.4771 2.14893 16.8794 2.10059 15.7852C2.04785 14.5986 2.03467 14.2427 2.03467 11.2412C2.03467 8.23535 2.04785 7.87939 2.10059 6.69727C2.14893 5.59863 2.3335 5.00537 2.4873 4.60986C2.68945 4.08691 2.93555 3.70898 3.32666 3.31787C3.72217 2.92236 4.0957 2.68066 4.61865 2.47852C5.01416 2.32471 5.61182 2.14014 6.70606 2.0918C7.88818 2.03906 8.24414 2.02588 11.25 2.02588ZM11.25 0C8.1958 0 7.81348 0.0131836 6.61377 0.065918C5.41846 0.118652 4.59668 0.312012 3.88477 0.588867C3.14209 0.878906 2.51367 1.26123 1.88965 1.88965C1.26123 2.51367 0.878906 3.14209 0.588867 3.88037C0.312012 4.59668 0.118652 5.41406 0.065918 6.60938C0.0131836 7.81348 0 8.1958 0 11.25C0 14.3042 0.0131836 14.6865 0.065918 15.8862C0.118652 17.0815 0.312012 17.9033 0.588867 18.6152C0.878906 19.3579 1.26123 19.9863 1.88965 20.6104C2.51367 21.2344 3.14209 21.6211 3.88037 21.9067C4.59668 22.1836 5.41406 22.377 6.60938 22.4297C7.80908 22.4824 8.19141 22.4956 11.2456 22.4956C14.2998 22.4956 14.6821 22.4824 15.8818 22.4297C17.0771 22.377 17.8989 22.1836 18.6108 21.9067C19.3491 21.6211 19.9775 21.2344 20.6016 20.6104C21.2256 19.9863 21.6123 19.3579 21.8979 18.6196C22.1748 17.9033 22.3682 17.0859 22.4209 15.8906C22.4736 14.6909 22.4868 14.3086 22.4868 11.2544C22.4868 8.2002 22.4736 7.81787 22.4209 6.61816C22.3682 5.42285 22.1748 4.60107 21.8979 3.88916C21.6211 3.14209 21.2388 2.51367 20.6104 1.88965C19.9863 1.26563 19.3579 0.878906 18.6196 0.593262C17.9033 0.316406 17.0859 0.123047 15.8906 0.0703125C14.6865 0.0131836 14.3042 0 11.25 0Z" fill="#2F2C3B"/>
<path d="M11.25 5.47119C8.05957 5.47119 5.47119 8.05957 5.47119 11.25C5.47119 14.4404 8.05957 17.0288 11.25 17.0288C14.4404 17.0288 17.0288 14.4404 17.0288 11.25C17.0288 8.05957 14.4404 5.47119 11.25 5.47119ZM11.25 14.9985C9.18018 14.9985 7.50146 13.3198 7.50146 11.25C7.50146 9.18018 9.18018 7.50146 11.25 7.50146C13.3198 7.50146 14.9985 9.18018 14.9985 11.25C14.9985 13.3198 13.3198 14.9985 11.25 14.9985Z" fill="#2F2C3B"/>
<path d="M18.6064 5.24265C18.6064 5.98972 18 6.59177 17.2573 6.59177C16.5103 6.59177 15.9082 5.98532 15.9082 5.24265C15.9082 4.49558 16.5146 3.89352 17.2573 3.89352C18 3.89352 18.6064 4.49997 18.6064 5.24265Z" fill="#2F2C3B"/>
</g>
<defs>
<clipPath id="clip0_2010_425">
<rect width="22.5" height="22.5" fill="white"/>
</clipPath>
</defs>
</svg>
