<svg width="23" height="23" viewBox="0 0 23 23" fill="none" xmlns="http://www.w3.org/2000/svg">
<g clip-path="url(#clip0_2010_426)">
<path d="M20.8345 0H1.66113C0.742676 0 0 0.725098 0 1.62158V20.874C0 21.7705 0.742676 22.5 1.66113 22.5H20.8345C21.7529 22.5 22.5 21.7705 22.5 20.8784V1.62158C22.5 0.725098 21.7529 0 20.8345 0ZM6.67529 19.1733H3.33545V8.4331H6.67529V19.1733ZM5.00537 6.96973C3.93311 6.96973 3.06738 6.104 3.06738 5.03613C3.06738 3.96826 3.93311 3.10254 5.00537 3.10254C6.07324 3.10254 6.93896 3.96826 6.93896 5.03613C6.93896 6.09961 6.07324 6.96973 5.00537 6.96973ZM19.1733 19.1733H15.8379V13.9526C15.8379 12.709 15.8159 11.105 14.1021 11.105C12.3662 11.105 12.1025 12.4629 12.1025 13.8647V19.1733H8.77149V8.4331H11.9707V9.90088H12.0146C12.4585 9.05713 13.5483 8.16504 15.1699 8.16504C18.5493 8.16504 19.1733 10.3887 19.1733 13.2803V19.1733V19.1733Z" fill="#2F2C3B"/>
</g>
<defs>
<clipPath id="clip0_2010_426">
<rect width="22.5" height="22.5" fill="white"/>
</clipPath>
</defs>
</svg>
