<svg width="32" height="32" viewBox="0 0 32 32" fill="none" xmlns="http://www.w3.org/2000/svg">
<path d="M19.7983 16.0007L31.6835 4.11542C32.1055 3.69336 32.1055 3.01036 31.6835 2.58843L29.4121 0.31601C29.2098 0.113833 28.9352 0 28.6487 0C28.3621 0 28.0876 0.113833 27.8853 0.31601L16 12.2022L4.11479 0.31601C3.91249 0.113833 3.63796 0 3.35135 0C3.0648 0 2.7902 0.113833 2.58797 0.31601L0.316528 2.58843C-0.105509 3.01036 -0.105509 3.69336 0.316528 4.11542L12.2018 16.0007L0.317708 27.8846C-0.10412 28.3066 -0.10412 28.9896 0.317708 29.4116L2.58929 31.684C2.79145 31.8862 3.06605 32 3.35267 32C3.63928 32 3.91381 31.8862 4.11618 31.684L16 19.7992L27.8838 31.684C28.0861 31.8862 28.3606 32 28.6472 32C28.9339 32 29.2085 31.8862 29.4106 31.684L31.6822 29.4116C32.104 28.9896 32.104 28.3066 31.6822 27.8846L19.7983 16.0007Z" fill="#C3A579"/>
</svg>
